<?xml version="1.0" encoding="UTF-8"?>
<svg version="1.1" xmlns="http://www.w3.org/2000/svg" width="1024" height="811">
<path d="M0 0 C0.66 0.33 1.32 0.66 2 1 C1.58862793 1.53665283 1.17725586 2.07330566 0.75341797 2.6262207 C-6.62079981 12.25440995 -13.96543409 21.89824544 -21.125 31.6875 C-25.65111782 37.87259583 -30.27062511 43.96894417 -35 50 C-41.61986286 58.44465776 -48.00247156 67.050137 -54.33056641 75.71484375 C-56.47190002 78.6459468 -58.61996387 81.57208223 -60.76831055 84.49804688 C-62.8471258 87.33087094 -64.92354216 90.1654475 -67 93 C-66.20387802 92.92843185 -65.40775604 92.85686371 -64.58750916 92.78312683 C-39.12726142 90.51087189 -13.64514425 88.59935872 11.85131836 86.78295898 C17.39955883 86.3875185 22.94732695 85.98580698 28.49500942 85.58262348 C32.83328927 85.26824996 37.17184361 84.95780286 41.5104847 84.64845848 C43.55769638 84.50190601 45.60481272 84.35401445 47.65182304 84.20467567 C67.90923379 82.73000882 67.90923379 82.73000882 78 83 C74.70035213 85.19976525 71.61581039 86.04400315 67.83496094 87.00512695 C67.10155361 87.19643535 66.36814629 87.38774374 65.6125145 87.58484936 C63.15448391 88.22465282 60.69444624 88.85637366 58.234375 89.48828125 C56.47987903 89.94350366 54.72552837 90.39928645 52.97131348 90.85559082 C49.20370466 91.83464511 45.43526041 92.81039015 41.6661377 93.78359985 C32.70211047 96.09867669 23.74304979 98.43285914 14.78343964 100.76495934 C11.69755794 101.56801492 8.61151532 102.3704498 5.52545166 103.17280579 C-13.8423 108.21003247 -33.195785 113.30040661 -52.53894043 118.4312439 C-56.00944704 119.35169455 -59.48056909 120.2697658 -62.95227051 121.18569946 C-67.02397642 122.25998832 -71.09454871 123.33846357 -75.16423035 124.4203949 C-76.65094955 124.81494216 -78.13805268 125.20804604 -79.62556458 125.59959412 C-81.64830094 126.13236732 -83.66951674 126.67056322 -85.69042969 127.21020508 C-86.81954773 127.50945389 -87.94866577 127.8087027 -89.11199951 128.11701965 C-93.68316739 129.51461339 -96.18678917 130.81223879 -98.9609375 134.71875 C-99.5075 135.47671875 -100.0540625 136.2346875 -100.6171875 137.015625 C-101.19726562 137.83546875 -101.77734375 138.6553125 -102.375 139.5 C-103.63070579 141.24110466 -104.88857347 142.98065187 -106.1484375 144.71875 C-106.7887793 145.60304687 -107.42912109 146.48734375 -108.08886719 147.3984375 C-110.97738618 151.33048379 -113.98258167 155.16652075 -117 159 C-124.92840259 169.10449607 -132.87267944 179.30901916 -140 190 C-139.18547363 190.25185059 -138.37094727 190.50370117 -137.53173828 190.76318359 C-133.39693058 192.21119519 -129.47203741 193.96500997 -125.4921875 195.7890625 C-124.66687531 196.1642099 -123.84156311 196.5393573 -122.99124146 196.9258728 C-121.21348617 197.73417303 -119.43631352 198.54375568 -117.65966797 199.35449219 C-112.89850412 201.52677841 -108.13277641 203.68900534 -103.3671875 205.8515625 C-101.91853302 206.50925629 -101.91853302 206.50925629 -100.44061279 207.18023682 C-91.64817852 211.16813514 -82.82853115 215.09282614 -74 219 C-59.01308346 225.63678945 -44.0743962 232.37723333 -29.14501953 239.14233398 C-27.38184718 239.9412683 -25.61866375 240.74017816 -23.85546875 241.5390625 C-22.57231781 242.12044731 -22.57231781 242.12044731 -21.26324463 242.71357727 C-12.85232905 246.52279946 -4.42827033 250.30214385 4.00024414 254.07226562 C10.95833739 257.18552406 17.9110228 260.31038213 24.859375 263.4453125 C42.52374526 271.41316381 60.18985123 279.36159568 78 287 C78 287.66 78 288.32 78 289 C22.56 289.33 -32.88 289.66 -90 290 C-76.8 295.94 -63.6 301.88 -50 308 C-38.36328125 313.23828125 -38.36328125 313.23828125 -33.73828125 315.3203125 C-19.8596251 321.56772006 -5.97753743 327.80725647 7.9128418 334.02856445 C18.28062082 338.67374101 28.64055681 343.33626994 39 348 C53.02056843 354.31174734 67.04521791 360.61416605 81.078125 366.8984375 C85.31041417 368.79387245 89.54145554 370.69203831 93.7709198 372.59376526 C96.36838497 373.76162235 98.96624376 374.92860248 101.56411743 376.09555054 C103.35521117 376.90051715 105.14575855 377.70669911 106.9362793 378.51293945 C114.92056232 382.09843917 122.94563194 385.57550568 131 389 C131 389.66 131 390.32 131 391 C75.56 391.33 20.12 391.66 -37 392 C-3.20472125 407.29444721 -3.20472125 407.29444721 30.6328125 422.49365234 C36.36041134 425.05595548 42.08659567 427.62141279 47.8125 430.1875 C48.98143799 430.71134277 50.15037598 431.23518555 51.35473633 431.77490234 C62.77860738 436.8959513 74.19407794 442.03565147 85.60977173 447.17489624 C96.23598506 451.95859256 106.86470231 456.736527 117.5 461.5 C128.44694912 466.40411284 139.38994521 471.31697466 150.32983398 476.23681641 C152.08184898 477.02463846 153.83396161 477.81224344 155.58618164 478.59960938 C165.41444259 483.01629282 175.22899517 487.45766685 185 492 C185 492.33 185 492.66 185 493 C156.32067874 493.45698491 127.64178935 493.81056253 98.95953926 494.02130659 C95.56774675 494.0463185 92.17596145 494.07220516 88.78417969 494.09863281 C88.10898248 494.10387902 87.43378527 494.10912523 86.73812754 494.11453041 C75.82772879 494.2013857 64.91945354 494.35897099 54.01031153 494.54305592 C42.80306914 494.7305832 31.59654855 494.83978127 20.38771975 494.8817699 C14.09626277 494.90779095 7.80960816 494.96866307 1.51969528 495.11460114 C-4.40976607 495.25105286 -10.33248248 495.29211081 -16.26336479 495.26215363 C-18.43158569 495.26762706 -20.60004703 495.30704404 -22.76690483 495.3841095 C-38.68442056 495.92214231 -38.68442056 495.92214231 -44.24600554 491.02051258 C-48.43972442 486.19749599 -51.67550872 480.90169171 -54.72436404 475.30240965 C-56.30087412 472.45694893 -58.08521134 469.89036093 -60.0078125 467.26953125 C-60.79478516 466.14417969 -60.79478516 466.14417969 -61.59765625 464.99609375 C-66.86741852 457.4620858 -72.15384066 449.94026581 -77.46142578 442.43286133 C-81.92426103 436.1165396 -86.3572322 429.77950417 -90.7890625 423.44140625 C-94.51284257 418.11820523 -98.24978292 412.804604 -102 407.5 C-106.41038609 401.26015881 -110.80463506 395.00920496 -115.1875 388.75 C-115.73341797 387.97076172 -116.27933594 387.19152344 -116.84179688 386.38867188 C-121.58563172 379.60934174 -126.29426983 372.8058026 -131 366 C-123.42343316 390.73621112 -115.67001301 415.41433544 -107.8125 440.0625 C-107.47762196 441.11301922 -107.47762196 441.11301922 -107.1359787 442.18476105 C-106.45573899 444.31865405 -105.7754772 446.45254 -105.09521484 448.58642578 C-104.18582849 451.43911361 -103.27649197 454.29181732 -102.3671875 457.14453125 C-102.14211895 457.85056992 -101.9170504 458.55660858 -101.68516159 459.28404236 C-96.16242465 476.61076868 -90.68323804 493.95116147 -85.21655273 511.2956543 C-84.4998464 513.56950158 -83.78313106 515.84334604 -83.06640625 518.1171875 C-82.72171799 519.2108815 -82.37702972 520.3045755 -82.02189636 521.43141174 C-79.76560527 528.58596489 -77.49432444 535.73561792 -75.21484375 542.8828125 C-74.36604192 545.54951841 -73.51756531 548.21632755 -72.66921997 550.88317871 C-72.14642879 552.52340716 -71.62211575 554.16315144 -71.09616089 555.80236816 C-70.39107727 557.99988023 -69.69106359 560.19894497 -68.9921875 562.3984375 C-68.40993408 564.21867432 -68.40993408 564.21867432 -67.81591797 566.07568359 C-67 569 -67 569 -67 572 C-170.62 572 -274.24 572 -381 572 C-376.66788192 566.94586224 -372.31857924 562.03639237 -367.76000977 557.20141602 C-367.06721955 556.46637376 -366.37442934 555.7313315 -365.66064548 554.97401524 C-358.33330288 547.23926842 -350.81541506 539.70038258 -343.26218987 532.18702507 C-340.76551373 529.70340235 -338.27222989 527.21641471 -335.77967834 524.72865295 C-330.50181434 519.4620606 -325.21995597 514.199486 -319.9375 508.9375 C-313.77550898 502.79923149 -307.61523206 496.6592615 -301.45913887 490.51507759 C-299.0156689 488.07803521 -296.56918541 485.64404695 -294.12254333 483.21018982 C-292.61792403 481.70920441 -291.11344571 480.20807765 -289.60913086 478.70678711 C-288.93942764 478.04225021 -288.26972443 477.37771332 -287.57972717 476.69303894 C-283.73726436 472.85100312 -280.08597358 468.89820866 -276.54753113 464.77393436 C-274.23658844 462.1249016 -271.77831981 459.66657789 -269.28515625 457.1875 C-268.78455185 456.68831055 -268.28394745 456.18912109 -267.76817322 455.67480469 C-266.20199236 454.1141263 -264.63233529 452.55700153 -263.0625 451 C-261.98609346 449.92862113 -260.90991986 448.85700818 -259.83398438 447.78515625 C-257.22533255 445.18740362 -254.61355529 442.59282038 -252 440 C-255.70246792 434.9612055 -259.52061679 430.09135495 -263.625 425.375 C-264.67712218 424.15628354 -265.72920436 422.93753253 -266.78125 421.71875 C-267.31363281 421.10386719 -267.84601563 420.48898437 -268.39453125 419.85546875 C-270.97900595 416.86854543 -273.5530415 413.8727022 -276.125 410.875 C-276.61597168 410.30297852 -277.10694336 409.73095703 -277.61279297 409.14160156 C-282.46643297 403.47553591 -287.23803148 397.74317889 -292 392 C-313.49095421 396.09636647 -334.81546663 400.91446442 -356.15921783 405.70783615 C-362.68938267 407.1741275 -369.22087191 408.63445848 -375.75262451 410.09365845 C-394.30388987 414.23869135 -412.8543819 418.38712218 -431.40136719 422.55126953 C-441.69185063 424.86162602 -451.98390114 427.16485627 -462.27779078 429.45999014 C-467.70866423 430.67118876 -473.13864237 431.8861233 -478.56668854 433.10993576 C-483.65067606 434.25616294 -488.73664532 435.39312241 -493.8243103 436.52291107 C-495.69036567 436.93906008 -497.55565209 437.35867431 -499.42009735 437.78197861 C-501.96146713 438.3584477 -504.50528737 438.92249212 -507.05010986 439.48348999 C-508.15829571 439.73954594 -508.15829571 439.73954594 -509.28886914 440.00077474 C-513.15838446 440.83883424 -516.20459601 441.26017812 -520 440 C-522.41439819 438.073349 -522.41439819 438.073349 -524.95458984 435.51538086 C-525.42200089 435.05016022 -525.88941193 434.58493958 -526.37098694 434.10562134 C-527.91077697 432.56813854 -529.43580708 431.01685849 -530.9609375 429.46484375 C-532.03480865 428.38604362 -533.10949865 427.30805805 -534.18496704 426.23085022 C-536.43866094 423.96951749 -538.68574366 421.70189067 -540.92773438 419.42895508 C-543.78261602 416.5347132 -546.64796563 413.65114617 -549.51772118 410.7716589 C-552.27313078 408.0061974 -555.02363248 405.23587657 -557.7734375 402.46484375 C-558.2897813 401.9451042 -558.80612511 401.42536465 -559.33811569 400.88987541 C-564.57281279 395.61369644 -569.71933897 390.30212078 -574.5614624 384.65943909 C-576.42087121 382.51449991 -578.38771955 380.49900696 -580.40234375 378.5 C-581.14677734 377.75878906 -581.89121094 377.01757812 -582.65820312 376.25390625 C-583.78645508 375.13822266 -583.78645508 375.13822266 -584.9375 374 C-586.10635742 372.83791016 -586.10635742 372.83791016 -587.29882812 371.65234375 C-589.1969242 369.76589243 -591.09733149 367.88183755 -593 366 C-590.71831217 363.71831217 -590.12306322 363.67996653 -587.03531933 363.33502865 C-585.78517411 363.18890303 -585.78517411 363.18890303 -584.50977343 363.03982538 C-583.12872289 362.89200368 -583.12872289 362.89200368 -581.71977234 362.74119568 C-580.25854729 362.57430688 -580.25854729 362.57430688 -578.76780254 362.4040466 C-575.48369814 362.03112677 -572.19833252 361.670789 -568.9128418 361.31030273 C-566.56592415 361.04638182 -564.21909369 360.78168461 -561.87234497 360.51626587 C-556.14721875 359.87070739 -550.42123866 359.23317851 -544.69483884 358.5990253 C-538.02803032 357.86024438 -531.3623851 357.11122011 -524.69680605 356.36144031 C-512.80260094 355.02375356 -500.90756837 353.69358028 -489.01196289 352.3684082 C-477.46735861 351.08231556 -465.92303069 349.79379678 -454.37915039 348.5012207 C-453.66861091 348.42166267 -452.95807143 348.34210464 -452.22600045 348.26013576 C-444.46850246 347.39146785 -436.7110838 346.52209329 -428.95372486 345.65218449 C-428.27182113 345.57571875 -427.58991739 345.49925302 -426.88734991 345.42047014 C-422.79814694 344.96192456 -422.79814694 344.96192456 -418.70895205 344.50330699 C-410.07556896 343.53499982 -401.4418432 342.5698472 -392.80773389 341.60803401 C-387.85798515 341.05636011 -382.90842297 340.50302522 -377.95889664 339.94935989 C-375.65996238 339.69260584 -373.36094313 339.43661156 -371.06183434 339.18142509 C-367.9280591 338.83352376 -364.79458931 338.48298755 -361.66117859 338.13182068 C-360.29016629 337.98065289 -360.29016629 337.98065289 -358.89145678 337.82643121 C-354.88323021 337.37470373 -350.94000991 336.89194944 -347 336 C-347.50861572 335.49662109 -348.01723145 334.99324219 -348.54125977 334.47460938 C-350.88440728 332.15248022 -353.22346602 329.8262723 -355.5625 327.5 C-356.36236328 326.70851563 -357.16222656 325.91703125 -357.98632812 325.1015625 C-359.1706543 323.92207031 -359.1706543 323.92207031 -360.37890625 322.71875 C-361.0963501 322.00654297 -361.81379395 321.29433594 -362.55297852 320.56054688 C-364.50446546 318.51852402 -366.35596006 316.44976802 -368.19873047 314.31225586 C-374.98873981 306.50090981 -382.42396243 299.27266889 -389.71557617 291.93432617 C-391.62239261 290.01408145 -393.52163532 288.08678495 -395.41479492 286.15307617 C-398.15951039 283.34962907 -400.92452725 280.56673988 -403.69140625 277.78515625 C-404.95725304 276.4853054 -404.95725304 276.4853054 -406.24867249 275.15919495 C-407.04647629 274.36424118 -407.84428009 273.56928741 -408.66625977 272.75024414 C-409.36018326 272.0482338 -410.05410675 271.34622345 -410.76905823 270.62294006 C-415.44021059 267.22482345 -421.62094511 267.82378198 -427.20663452 267.73461914 C-428.01718249 267.71813607 -428.82773046 267.701653 -429.66284049 267.68467045 C-432.37070381 267.63065566 -435.07864089 267.5829227 -437.78662109 267.53515625 C-439.73197164 267.49761121 -441.67731454 267.45966777 -443.62265015 267.4213562 C-447.80989643 267.33971423 -451.99718237 267.26082529 -456.18452072 267.18405151 C-462.81806284 267.06234284 -469.45146906 266.93410779 -476.08486938 266.80493164 C-488.9843962 266.55461198 -501.88404081 266.31073543 -514.78370667 266.06770325 C-531.16655101 265.75885302 -547.54934805 265.44767844 -563.93201506 265.12954998 C-570.51245148 265.00199182 -577.09294098 264.87789145 -583.67349505 264.75656128 C-587.78895547 264.6800061 -591.90435693 264.60057323 -596.01974869 264.52042007 C-597.9126026 264.48414101 -599.80547939 264.4490308 -601.69837952 264.41524887 C-606.69964301 264.32567924 -611.69955145 264.21787201 -616.69940054 264.06808174 C-618.23958862 264.02250289 -619.77992232 263.98161518 -621.32035673 263.94530308 C-623.51535472 263.88878739 -625.7078939 263.80669056 -627.90174866 263.71681213 C-629.75908678 263.65234312 -629.75908678 263.65234312 -631.65394688 263.58657169 C-637.93130288 262.48613509 -641.55381905 258.31658579 -645.72265625 253.77734375 C-646.63784531 252.84330215 -647.55303436 251.90926056 -648.49595642 250.94691467 C-650.90705067 248.48476211 -653.26936442 245.98071823 -655.6237793 243.46447754 C-658.01372733 240.92792062 -660.44957784 238.43629769 -662.88085938 235.93945312 C-669.271267 229.35102199 -675.65099909 222.75280902 -681.65625 215.80859375 C-684.95248354 212.00400237 -688.4442843 208.44351173 -692.02734375 204.91015625 C-692.66112442 204.2801622 -693.29490509 203.65016815 -693.94789124 203.00108337 C-695.94197828 201.0190691 -697.93931963 199.04038692 -699.9375 197.0625 C-702.59527954 194.43121939 -705.24978455 191.79669807 -707.90234375 189.16015625 C-708.51472397 188.55607437 -709.12710419 187.95199249 -709.75804138 187.3296051 C-711.19094488 185.90518392 -712.59841051 184.45524398 -714 183 C-714 182.67 -714 182.34 -714 182 C-694.03646973 181.8422199 -674.12419643 182.25627884 -654.17463207 182.92997289 C-650.04704278 183.06831601 -645.91927791 183.20123637 -641.79153442 183.33488464 C-634.6753685 183.56600286 -627.55931695 183.80039809 -620.44333649 184.03715515 C-610.15539617 184.3794421 -599.86729179 184.71657543 -589.57914314 185.05253512 C-572.87881563 185.59802094 -556.17862394 186.14755425 -539.47851562 186.69970703 C-523.27611216 187.23539544 -507.07364628 187.76913154 -490.87109375 188.30029297 C-489.36772138 188.3495784 -489.36772138 188.3495784 -487.83397785 188.39985949 C-482.80494056 188.56471577 -477.77590203 188.7295342 -472.74686289 188.89433384 C-431.16438154 190.25702423 -389.58211948 191.62631447 -348 193 C-348.73750488 192.13479736 -349.47500977 191.26959473 -350.23486328 190.37817383 C-351.2217538 189.21702262 -352.20856602 188.05580486 -353.1953125 186.89453125 C-353.67911377 186.32738403 -354.16291504 185.76023682 -354.66137695 185.17590332 C-357.84502267 181.42517905 -360.89493252 177.60208656 -363.875 173.6875 C-364.32738037 173.09340332 -364.77976074 172.49930664 -365.24584961 171.88720703 C-365.78737671 171.17346924 -365.78737671 171.17346924 -366.33984375 170.4453125 C-369.29436489 166.58730574 -372.36268019 162.82486555 -375.4375 159.0625 C-379.98142033 153.50078925 -384.46590972 147.8996075 -388.88842773 142.2409668 C-392.8948613 137.11874332 -396.95506548 132.04063044 -401.02954102 126.97241211 C-402.3574084 125.31837815 -403.67970348 123.66007871 -405 122 C-405.6084375 121.23945312 -406.216875 120.47890625 -406.84375 119.6953125 C-408 118 -408 118 -408 116 C-395.39621344 115.05736985 -382.79195245 114.12118071 -370.1875 113.1875 C-369.19081299 113.11362816 -368.19412598 113.03975632 -367.16723633 112.96364594 C-336.47520813 110.68968117 -305.77903735 108.47835659 -275.07948899 106.30865788 C-272.43128065 106.12148245 -269.78307859 105.93421841 -267.13487816 105.74693108 C-250.33367597 104.5587942 -233.53236118 103.37229071 -216.73051494 102.19329315 C-209.96502095 101.71846362 -203.19964658 101.24195372 -196.43435532 100.7642445 C-191.70755449 100.43059358 -186.98060797 100.09911901 -182.25353557 99.76933914 C-179.35173898 99.56637079 -176.45009331 99.36130686 -173.54848635 99.15564692 C-171.5829665 99.01695869 -169.61726999 98.88078117 -167.65156841 98.7446928 C-156.35314833 98.36937678 -156.35314833 98.36937678 -146.1640625 94.18359375 C-145.27799316 93.59263916 -144.39192383 93.00168457 -143.47900391 92.39282227 C-142.53718262 91.74756592 -141.59536133 91.10230957 -140.625 90.4375 C-138.56331344 89.05867876 -136.50078436 87.68111662 -134.4375 86.3046875 C-133.3753125 85.59151367 -132.313125 84.87833984 -131.21875 84.14355469 C-126.06614271 80.71213084 -120.84651135 77.38774797 -115.625 74.0625 C-113.53376763 72.72669797 -111.44262236 71.39075957 -109.3515625 70.0546875 C-108.3090332 69.38920898 -107.26650391 68.72373047 -106.19238281 68.03808594 C-100.79295077 64.59097224 -95.39616841 61.13971985 -90 57.6875 C-88.94828613 57.01468994 -87.89657227 56.34187988 -86.81298828 55.64868164 C-80.37229583 51.52580505 -73.9446377 47.38361839 -67.52929688 43.22143555 C-60.11806337 38.41822153 -52.67330034 33.66747032 -45.23193359 28.91113281 C-39.86513119 25.47918886 -34.50360516 22.03986791 -29.16040039 18.57128906 C-26.49536865 16.84127206 -23.82635962 15.11745528 -21.15673828 13.39453125 C-19.59368505 12.38387243 -18.03238575 11.37049936 -16.47216797 10.35546875 C-13.84059569 8.645791 -11.20224963 6.94701732 -8.5625 5.25 C-7.73830566 4.71149414 -6.91411133 4.17298828 -6.06494141 3.61816406 C-5.3022998 3.13057617 -4.5396582 2.64298828 -3.75390625 2.140625 C-2.73792358 1.48368652 -2.73792358 1.48368652 -1.70141602 0.81347656 C-0.85921509 0.41080566 -0.85921509 0.41080566 0 0 Z " fill="#C72629" transform="translate(830,0)"/>
<path d="M0 0 C4.04662194 1.54656297 7.97235442 3.28466604 11.90942383 5.08911133 C12.73473602 5.46425873 13.56004822 5.83940613 14.41036987 6.22592163 C16.18812516 7.03422186 17.96529781 7.84380451 19.74194336 8.65454102 C24.50310721 10.82682724 29.26883492 12.98905417 34.03442383 15.15161133 C35.00019348 15.59007385 35.96596313 16.02853638 36.96099854 16.48028564 C45.75343281 20.46818397 54.57308017 24.39287497 63.40161133 28.30004883 C78.38852787 34.93683827 93.32721513 41.67728216 108.2565918 48.44238281 C110.01976415 49.24131713 111.78294758 50.04022699 113.54614258 50.83911133 C114.40157654 51.2267012 115.2570105 51.61429108 116.1383667 52.0136261 C124.54928228 55.82284829 132.973341 59.60219268 141.40185547 63.37231445 C148.35994872 66.48557289 155.31263413 69.61043096 162.26098633 72.74536133 C179.92535659 80.71321264 197.59146256 88.66164451 215.40161133 96.30004883 C215.40161133 96.96004883 215.40161133 97.62004883 215.40161133 98.30004883 C159.96161133 98.63004883 104.52161133 98.96004883 47.40161133 99.30004883 C67.20161133 108.21004883 67.20161133 108.21004883 87.40161133 117.30004883 C99.03833008 122.53833008 99.03833008 122.53833008 103.66333008 124.62036133 C117.54198622 130.86776889 131.4240739 137.1073053 145.31445312 143.32861328 C155.68223215 147.97378983 166.04216813 152.63631877 176.40161133 157.30004883 C190.42217976 163.61179617 204.44682924 169.91421488 218.47973633 176.19848633 C222.7120255 178.09392128 226.94306686 179.99208714 231.17253113 181.89381409 C233.7699963 183.06167118 236.36785509 184.22865131 238.96572876 185.39559937 C240.7568225 186.20056597 242.54736988 187.00674794 244.33789062 187.81298828 C252.32217364 191.398488 260.34724327 194.87555451 268.40161133 198.30004883 C268.40161133 198.96004883 268.40161133 199.62004883 268.40161133 200.30004883 C212.96161133 200.63004883 157.52161133 200.96004883 100.40161133 201.30004883 C134.19689008 216.59449604 134.19689008 216.59449604 168.03442383 231.79370117 C173.76202267 234.35600431 179.488207 236.92146162 185.21411133 239.48754883 C186.38304932 240.0113916 187.5519873 240.53523437 188.75634766 241.07495117 C200.18021871 246.19600013 211.59568926 251.33570029 223.01138306 256.47494507 C233.63759639 261.25864139 244.26631364 266.03657583 254.90161133 270.80004883 C265.84856045 275.70416167 276.79155654 280.61702349 287.73144531 285.53686523 C289.48346031 286.32468729 291.23557294 287.11229227 292.98779297 287.8996582 C302.81605391 292.31634165 312.6306065 296.75771568 322.40161133 301.30004883 C322.40161133 301.63004883 322.40161133 301.96004883 322.40161133 302.30004883 C293.72229007 302.75703374 265.04340068 303.11061136 236.36115059 303.32135542 C232.96935808 303.34636732 229.57757277 303.37225398 226.18579102 303.39868164 C225.51059381 303.40392785 224.8353966 303.40917406 224.13973887 303.41457924 C213.22934012 303.50143453 202.32106487 303.65901981 191.41192286 303.84310475 C180.20468046 304.03063202 168.99815987 304.13983009 157.78933108 304.18181872 C151.4978741 304.20783978 145.21121949 304.2687119 138.92130661 304.41464996 C132.99184526 304.55110169 127.06912885 304.59215964 121.13824654 304.56220245 C118.97002564 304.56767589 116.8015643 304.60709287 114.6347065 304.68415833 C98.71719077 305.22219114 98.71719077 305.22219114 93.15560579 300.32056141 C88.96188691 295.49754482 85.72610261 290.20174054 82.67724729 284.60245848 C81.10073721 281.75699776 79.31639998 279.19040976 77.39379883 276.56958008 C76.60682617 275.44422852 76.60682617 275.44422852 75.80395508 274.29614258 C70.53419281 266.76213463 65.24777067 259.24031464 59.94018555 251.73291016 C55.4773503 245.41658842 51.04437913 239.079553 46.61254883 232.74145508 C42.88876876 227.41825405 39.15182841 222.10465283 35.40161133 216.80004883 C30.99122524 210.56020764 26.59697627 204.30925379 22.21411133 198.05004883 C21.66819336 197.27081055 21.12227539 196.49157227 20.55981445 195.6887207 C15.8159796 188.90939057 11.10734149 182.10585143 6.40161133 175.30004883 C13.97817817 200.03625995 21.73159832 224.71438427 29.58911133 249.36254883 C29.81236336 250.06289497 30.03561539 250.76324112 30.26563263 251.48480988 C30.94587233 253.61870287 31.62613413 255.75258883 32.30639648 257.88647461 C33.21578284 260.73916244 34.12511936 263.59186615 35.03442383 266.44458008 C35.25949238 267.15061874 35.48456093 267.85665741 35.71644974 268.58409119 C41.23918668 285.91081751 46.71837328 303.2512103 52.18505859 320.59570312 C52.90176493 322.86955041 53.61848027 325.14339486 54.33520508 327.41723633 C54.67989334 328.51093033 55.0245816 329.60462433 55.37971497 330.73146057 C57.63600606 337.88601372 59.90728689 345.03566675 62.18676758 352.18286133 C63.03556941 354.84956724 63.88404602 357.51637637 64.73239136 360.18322754 C65.25518254 361.82345599 65.77949558 363.46320027 66.30545044 365.10241699 C67.01053406 367.29992906 67.71054773 369.4989938 68.40942383 371.69848633 C68.99167725 373.51872314 68.99167725 373.51872314 69.58569336 375.37573242 C70.40161133 378.30004883 70.40161133 378.30004883 70.40161133 381.30004883 C-33.21838867 381.30004883 -136.83838867 381.30004883 -243.59838867 381.30004883 C-239.26627059 376.24591106 -234.91696791 371.3364412 -230.35839844 366.50146484 C-229.66560822 365.76642259 -228.97281801 365.03138033 -228.25903416 364.27406406 C-220.93169155 356.53931725 -213.41380373 349.00043141 -205.86057854 341.4870739 C-203.3639024 339.00345118 -200.87061856 336.51646354 -198.37806702 334.02870178 C-193.10020301 328.76210943 -187.81834464 323.49953483 -182.53588867 318.23754883 C-176.37389765 312.09928032 -170.21362073 305.95931033 -164.05752754 299.81512642 C-161.61405758 297.37808404 -159.16757408 294.94409578 -156.72093201 292.51023865 C-155.2163127 291.00925323 -153.71183438 289.50812648 -152.20751953 288.00683594 C-151.53781631 287.34229904 -150.8681131 286.67776215 -150.17811584 285.99308777 C-146.33565304 282.15105195 -142.68436225 278.19825749 -139.1459198 274.07398319 C-136.83497711 271.42495043 -134.37670848 268.96662672 -131.88354492 266.48754883 C-131.38294052 265.98835938 -130.88233612 265.48916992 -130.36656189 264.97485352 C-128.80038103 263.41417513 -127.23072396 261.85705035 -125.66088867 260.30004883 C-124.58448214 259.22866996 -123.50830853 258.15705701 -122.43237305 257.08520508 C-119.82372123 254.48745245 -117.21194396 251.89286921 -114.59838867 249.30004883 C-118.30085659 244.26125433 -122.11900546 239.39140378 -126.22338867 234.67504883 C-127.27551086 233.45633237 -128.32759303 232.23758136 -129.37963867 231.01879883 C-129.91202148 230.40391602 -130.4444043 229.7890332 -130.99291992 229.15551758 C-133.57739462 226.16859426 -136.15143017 223.17275103 -138.72338867 220.17504883 C-139.21436035 219.60302734 -139.70533203 219.03100586 -140.21118164 218.44165039 C-145.06472754 212.77569459 -149.8409568 207.04685813 -154.59838867 201.30004883 C-153.34554539 197.84657864 -151.94265812 195.16681494 -149.65698242 192.29614258 C-149.07819336 191.56210205 -148.4994043 190.82806152 -147.90307617 190.07177734 C-147.2869043 189.30148193 -146.67073242 188.53118652 -146.03588867 187.73754883 C-144.75261288 186.11051521 -143.47005989 184.48291123 -142.18823242 182.85473633 C-141.56674316 182.06808594 -140.94525391 181.28143555 -140.30493164 180.47094727 C-135.4325789 174.27281271 -130.77759661 167.90964552 -126.11401367 161.55395508 C-125.18298828 160.28636353 -125.18298828 160.28636353 -124.2331543 158.99316406 C-123.00590458 157.32095684 -121.78054513 155.64736016 -120.55737305 153.97216797 C-118.03755245 150.53595169 -115.51616426 147.15060462 -112.73901367 143.91723633 C-110.44290984 141.42668465 -110.44290984 141.42668465 -109.59838867 138.30004883 C-108.93838867 138.30004883 -108.27838867 138.30004883 -107.59838867 138.30004883 C-107.16526367 137.43379883 -107.16526367 137.43379883 -106.72338867 136.55004883 C-106.35213867 135.80754883 -105.98088867 135.06504883 -105.59838867 134.30004883 C-105.26838867 133.57817383 -104.93838867 132.85629883 -104.59838867 132.11254883 C-103.59838867 130.30004883 -103.59838867 130.30004883 -101.59838867 129.30004883 C-101.26838867 128.31004883 -100.93838867 127.32004883 -100.59838867 126.30004883 C-99.93838867 125.97004883 -99.27838867 125.64004883 -98.59838867 125.30004883 C-98.26838867 124.31004883 -97.93838867 123.32004883 -97.59838867 122.30004883 C-96.93838867 121.97004883 -96.27838867 121.64004883 -95.59838867 121.30004883 C-95.26838867 120.31004883 -94.93838867 119.32004883 -94.59838867 118.30004883 C-93.93838867 117.97004883 -93.27838867 117.64004883 -92.59838867 117.30004883 C-92.26838867 116.31004883 -91.93838867 115.32004883 -91.59838867 114.30004883 C-90.93838867 113.97004883 -90.27838867 113.64004883 -89.59838867 113.30004883 C-89.26838867 112.31004883 -88.93838867 111.32004883 -88.59838867 110.30004883 C-87.93838867 109.97004883 -87.27838867 109.64004883 -86.59838867 109.30004883 C-86.26838867 108.31004883 -85.93838867 107.32004883 -85.59838867 106.30004883 C-84.93838867 105.97004883 -84.27838867 105.64004883 -83.59838867 105.30004883 C-83.26838867 104.31004883 -82.93838867 103.32004883 -82.59838867 102.30004883 C-81.93838867 101.97004883 -81.27838867 101.64004883 -80.59838867 101.30004883 C-80.26838867 100.31004883 -79.93838867 99.32004883 -79.59838867 98.30004883 C-78.93838867 97.97004883 -78.27838867 97.64004883 -77.59838867 97.30004883 C-77.26838867 96.31004883 -76.93838867 95.32004883 -76.59838867 94.30004883 C-75.93838867 93.97004883 -75.27838867 93.64004883 -74.59838867 93.30004883 C-74.26838867 92.31004883 -73.93838867 91.32004883 -73.59838867 90.30004883 C-72.93838867 89.97004883 -72.27838867 89.64004883 -71.59838867 89.30004883 C-71.26838867 88.31004883 -70.93838867 87.32004883 -70.59838867 86.30004883 C-69.93838867 85.97004883 -69.27838867 85.64004883 -68.59838867 85.30004883 C-68.26838867 84.31004883 -67.93838867 83.32004883 -67.59838867 82.30004883 C-66.08245117 81.06254883 -66.08245117 81.06254883 -64.53588867 79.80004883 C-63.56651367 78.97504883 -62.59713867 78.15004883 -61.59838867 77.30004883 C-61.59838867 76.31004883 -61.59838867 75.32004883 -61.59838867 74.30004883 C-60.28588867 72.86254883 -60.28588867 72.86254883 -58.59838867 71.30004883 C-57.57810002 69.98217598 -56.57867483 68.6479423 -55.59838867 67.30004883 C-53.59838867 64.63338216 -51.59838867 61.96671549 -49.59838867 59.30004883 C-49.16526367 58.70192383 -48.73213867 58.10379883 -48.28588867 57.48754883 C-46.84490454 55.61960643 -45.34774643 53.87777349 -43.78588867 52.11254883 C-40.86323583 48.73913859 -38.40941859 45.16123298 -35.99291992 41.41333008 C-34.17206103 38.6539893 -32.36074809 36.03308673 -29.97338867 33.73754883 C-28.33892391 32.23370782 -28.33892391 32.23370782 -27.59838867 29.30004883 C-26.43153601 28.13319616 -25.25030647 26.9798132 -24.03588867 25.86254883 C-22.35344896 24.24788035 -22.35344896 24.24788035 -21.59838867 21.30004883 C-20.60838867 20.80504883 -20.60838867 20.80504883 -19.59838867 20.30004883 C-19.26838867 19.31004883 -18.93838867 18.32004883 -18.59838867 17.30004883 C-17.60838867 16.80504883 -17.60838867 16.80504883 -16.59838867 16.30004883 C-16.26838867 15.31004883 -15.93838867 14.32004883 -15.59838867 13.30004883 C-14.93838867 12.97004883 -14.27838867 12.64004883 -13.59838867 12.30004883 C-13.26838867 11.31004883 -12.93838867 10.32004883 -12.59838867 9.30004883 C-11.93838867 8.97004883 -11.27838867 8.64004883 -10.59838867 8.30004883 C-10.26838867 7.31004883 -9.93838867 6.32004883 -9.59838867 5.30004883 C-8.18041992 3.62426758 -8.18041992 3.62426758 -6.41088867 1.98754883 C-5.83983398 1.43454102 -5.2687793 0.8815332 -4.68041992 0.31176758 C-2.59838867 -0.69995117 -2.59838867 -0.69995117 0 0 Z " fill="#CD292B" transform="translate(692.598388671875,190.699951171875)"/>
<path d="M0 0 C-2.64457326 2.78919836 -5.24250827 4.96253667 -8.5 6.99609375 C-9.3763208 7.54765137 -10.2526416 8.09920898 -11.15551758 8.66748047 C-12.09419678 9.25158691 -13.03287598 9.83569336 -14 10.4375 C-16.00444715 11.69835926 -18.0083426 12.96009597 -20.01171875 14.22265625 C-21.02024902 14.85703613 -22.0287793 15.49141602 -23.06787109 16.14501953 C-27.34195496 18.84897367 -31.57883476 21.60834799 -35.8125 24.375 C-44.48697223 30.03378205 -53.20543051 35.62205121 -61.93286133 41.19873047 C-67.79981596 44.94870547 -73.65882734 48.70999788 -79.5 52.5 C-86.16998709 56.82597981 -92.85747633 61.12446266 -99.55200195 65.41235352 C-101.21398849 66.47693296 -102.87555365 67.54217016 -104.53710938 68.60742188 C-105.56126953 69.26291016 -106.58542969 69.91839844 -107.640625 70.59375 C-108.55360352 71.17833984 -109.46658203 71.76292969 -110.40722656 72.36523438 C-111.2628418 72.90470703 -112.11845703 73.44417969 -113 74 C-113.73208679 74.48539246 -114.46417358 74.97078491 -115.21844482 75.47088623 C-118.4598332 77.25278567 -121.52280592 78.14790936 -125.09765625 79.10058594 C-125.792612 79.28794815 -126.48756775 79.47531036 -127.20358276 79.66835022 C-129.48782595 80.28173895 -131.77492316 80.88354816 -134.0625 81.484375 C-135.65773236 81.90809546 -137.25286439 82.33219382 -138.84790039 82.75665283 C-142.18531131 83.64270973 -145.52423096 84.52278362 -148.86425781 85.39892578 C-153.14149988 86.52163819 -157.41402225 87.66127487 -161.6855011 88.80569077 C-164.976053 89.68490197 -168.26920684 90.554022 -171.5632019 91.42023468 C-173.13972649 91.83632139 -174.71536377 92.25578544 -176.29006958 92.67870331 C-178.49157049 93.26856938 -180.69627605 93.84447979 -182.90234375 94.41699219 C-184.78167603 94.91304962 -184.78167603 94.91304962 -186.69897461 95.41912842 C-189.95812785 95.99263188 -191.88883006 96.0592001 -195 95 C-196.92536774 93.11899557 -198.5312666 91.3438707 -200.1875 89.25 C-200.66525879 88.66581299 -201.14301758 88.08162598 -201.63525391 87.47973633 C-205.20648693 83.0832382 -208.665128 78.5971648 -212.09082031 74.08666992 C-215.4508714 69.6711845 -218.92648104 65.3586011 -222.4375 61.0625 C-226.98142033 55.50078925 -231.46590972 49.8996075 -235.88842773 44.2409668 C-239.8948613 39.11874332 -243.95506548 34.04063044 -248.02954102 28.97241211 C-249.3574084 27.31837815 -250.67970348 25.66007871 -252 24 C-252.6084375 23.23945312 -253.216875 22.47890625 -253.84375 21.6953125 C-255 20 -255 20 -255 18 C-198.28836467 13.75856851 -141.56673433 9.66084006 -84.83987242 5.62888545 C-78.63175314 5.18758055 -72.4236982 4.74537813 -66.21566772 4.30282593 C-58.55927897 3.75708062 -50.90279194 3.21273797 -43.24617833 2.670156 C-39.27762774 2.38891725 -35.30911625 2.10715499 -31.34070396 1.82397079 C-27.66800239 1.56193221 -23.99518575 1.30157203 -20.32227099 1.04253924 C-18.34900671 0.90295645 -16.37586518 0.76164188 -14.40272808 0.62027264 C-13.22914147 0.53784722 -12.05555487 0.45542181 -10.84640503 0.37049866 C-9.83137846 0.2984726 -8.81635189 0.22644655 -7.77056694 0.15223789 C-5.1732725 0.00952103 -2.60051221 -0.02821039 0 0 Z " fill="#880C15" transform="translate(677,98)"/>
<path d="M0 0 C11.55 0 23.1 0 35 0 C35 7.5459492 34.9383941 14.9937625 34.5625 22.515625 C34.51810791 23.45629822 34.47371582 24.39697144 34.42797852 25.3661499 C34.28798087 28.32756762 34.14433111 31.28879058 34 34.25 C33.85600837 37.22550492 33.71288527 40.20104206 33.57202148 43.17669678 C33.48488897 45.01553278 33.39597326 46.85428552 33.30493164 48.69293213 C33.26489014 49.53450867 33.22484863 50.37608521 33.18359375 51.24316406 C33.14806396 51.97085999 33.11253418 52.69855591 33.07592773 53.44830322 C32.97131333 56.96407044 33 60.48267668 33 64 C39.6 42.88 46.2 21.76 53 0 C62.57 0 72.14 0 82 0 C82.33 20.46 82.66 40.92 83 62 C88.22152995 42.71839652 88.22152995 42.71839652 93.44116211 23.4362793 C94.09482036 21.02390709 94.74854312 18.61155237 95.40234375 16.19921875 C95.74269653 14.94065063 96.08304932 13.68208252 96.43371582 12.38537598 C96.75843872 11.1878772 97.08316162 9.99037842 97.41772461 8.7565918 C97.69974228 7.71512497 97.98175995 6.67365814 98.27232361 5.60063171 C98.7987596 3.71921004 99.38219078 1.85342767 100 0 C111.55 0 123.1 0 135 0 C134.33997874 3.96012756 133.78025607 7.02268954 132.50390625 10.69287109 C132.19785461 11.58032516 131.89180298 12.46777924 131.57647705 13.38212585 C131.07455841 14.81332512 131.07455841 14.81332512 130.5625 16.2734375 C130.2103241 17.28948563 129.85814819 18.30553375 129.49530029 19.35237122 C128.33507778 22.69496589 127.16770982 26.03501432 126 29.375 C125.19016544 31.70213788 124.38059851 34.0293689 123.57128906 36.35668945 C116.36805182 57.04484027 109.07143143 77.70039431 101.72131348 98.33679199 C100.20868045 102.5856783 98.70474891 106.83722701 97.22070312 111.09619141 C96.9426886 111.89197098 96.66467407 112.68775055 96.37823486 113.50764465 C95.85848616 114.99725854 95.34105883 116.48768515 94.82635498 117.97904968 C93.11127169 122.88872831 93.11127169 122.88872831 92 124 C81.44 124 70.88 124 60 124 C59.67 101.23 59.34 78.46 59 55 C57.49566406 59.81335938 55.99132812 64.62671875 54.44140625 69.5859375 C53.48911933 72.63026713 52.53673268 75.67456483 51.58398438 78.71875 C50.07087759 83.55340483 48.5581467 88.38817508 47.04760742 93.22363281 C45.83012108 97.12090398 44.6109883 101.01765654 43.39069939 104.91405106 C42.92481422 106.40265068 42.45952836 107.89143801 41.99484444 109.38041306 C41.34522257 111.46162439 40.69349664 113.54216556 40.04125977 115.62255859 C39.67041763 116.80836517 39.2995755 117.99417175 38.91749573 119.21591187 C38 122 38 122 37 124 C26.11 124 15.22 124 4 124 C3.47427871 110.78565969 2.95195953 97.57119637 2.43539429 84.3564949 C2.19532268 78.2183737 1.95384322 72.08031505 1.70898438 65.94238281 C1.47210924 60.00321185 1.23914364 54.06389852 1.00872803 48.12447357 C0.92078818 45.87458726 0.8315118 43.62475271 0.74078369 41.37497711 C0.18511429 27.56986307 -0.08935891 13.81712078 0 0 Z " fill="#C91C1C" transform="translate(193,640)"/>
<path d="M0 0 C1.77206192 0.00015919 3.54412846 0.00585754 5.31616211 0.01586914 C6.24698105 0.01728409 7.17779999 0.01869904 8.13682556 0.02015686 C11.12241777 0.02577367 14.10793615 0.03832899 17.09350586 0.05102539 C19.11238499 0.05603823 21.13126529 0.06060151 23.15014648 0.06469727 C28.11046158 0.07574856 33.07072118 0.09302444 38.03100586 0.11352539 C39.07884652 14.65657765 40.12217195 29.19994806 41.16021729 43.74370289 C41.64237267 50.49758336 42.12596935 57.25135468 42.61303711 64.00488281 C43.08344287 70.52743863 43.5497289 77.05028152 44.0135498 83.57330894 C44.19080338 86.05675638 44.36941659 88.54010718 44.54943848 91.02335548 C44.80214836 94.51255401 45.04993706 98.00207087 45.29663086 101.49169922 C45.37143677 102.50878464 45.44624268 103.52587006 45.52331543 104.57377625 C45.59062866 105.53969696 45.65794189 106.50561768 45.72729492 107.50080872 C45.78628967 108.32396985 45.84528442 109.14713099 45.90606689 109.9952364 C46.09447997 114.69774398 46.03100586 119.40724479 46.03100586 124.11352539 C34.48100586 124.11352539 22.93100586 124.11352539 11.03100586 124.11352539 C11.03100586 118.17352539 11.03100586 112.23352539 11.03100586 106.11352539 C4.43100586 106.11352539 -2.16899414 106.11352539 -8.96899414 106.11352539 C-9.23711914 107.59852539 -9.50524414 109.08352539 -9.78149414 110.61352539 C-10.66896255 115.52873505 -12.13613373 119.22589764 -13.96899414 124.11352539 C-25.84899414 124.11352539 -37.72899414 124.11352539 -49.96899414 124.11352539 C-49.15997749 120.06844214 -48.18259483 116.71384077 -46.75439453 112.88183594 C-46.52923188 112.27456571 -46.30406923 111.66729548 -46.07208347 111.04162312 C-45.32386281 109.02647433 -44.57028039 107.01337553 -43.81665039 105.00024414 C-43.28340461 103.56750087 -42.75048316 102.13463685 -42.21786499 100.70166016 C-40.78907004 96.86059434 -39.35555912 93.02130502 -37.92097092 89.18239975 C-36.43924792 85.2154191 -34.96135903 81.24701034 -33.48291016 77.27880859 C-30.81916383 70.13133408 -28.15125039 62.98542311 -25.48147297 55.84019947 C-23.6492307 50.93604616 -21.81924067 46.03106014 -19.99145508 41.12524414 C-17.85184052 35.38265524 -15.70966837 29.64103088 -13.56442261 23.90054321 C-12.79357988 21.83716811 -12.02349701 19.77350898 -11.25418091 17.70956421 C-10.20220082 14.88876499 -9.14671625 12.06930485 -8.09008789 9.25024414 C-7.78404633 8.42766113 -7.47800476 7.60507812 -7.16268921 6.75756836 C-4.6720212 0.13363412 -4.6720212 0.13363412 0 0 Z M11.03100586 40.11352539 C9.31836824 45.48753325 7.60946577 50.86270875 5.90405273 56.23901367 C5.32305424 58.068769 4.74102648 59.89819784 4.15795898 61.72729492 C3.32128049 64.35258714 2.48827975 66.97902151 1.65600586 69.60571289 C1.39352051 70.42659393 1.13103516 71.24747498 0.8605957 72.0932312 C-0.47920082 76.02573851 -0.47920082 76.02573851 -0.96899414 80.11352539 C2.99100586 80.11352539 6.95100586 80.11352539 11.03100586 80.11352539 C12.12949552 66.77472234 12.13990937 53.49022716 12.03100586 40.11352539 C11.70100586 40.11352539 11.37100586 40.11352539 11.03100586 40.11352539 Z " fill="#C91C1C" transform="translate(419.968994140625,639.886474609375)"/>
<path d="M0 0 C0.90878906 0.00539795 1.81757812 0.0107959 2.75390625 0.01635742 C12.51889101 0.23475745 21.41978981 2.09330265 29.75 7.4375 C28.58100289 17.90346237 26.96936179 28.13966131 24.75 38.4375 C23.84636719 38.01597656 22.94273437 37.59445312 22.01171875 37.16015625 C20.83222656 36.61230469 19.65273438 36.06445312 18.4375 35.5 C17.26574219 34.95472656 16.09398437 34.40945313 14.88671875 33.84765625 C9.69156336 31.51210071 5.40164673 30.72467969 -0.25 31.4375 C-3.02564845 32.79512154 -3.02564845 32.79512154 -4.25 35.4375 C-4.60062481 41.39812174 -1.89696125 44.80546818 1.72265625 49.1875 C3.6611983 51.33894551 5.66853939 53.36251567 7.75 55.375 C16.8576928 64.32352924 21.70166564 73.44313531 22.125 86.3125 C21.8272121 96.28192098 19.8697382 105.4432474 13.75 113.4375 C13.028125 114.46875 12.30625 115.5 11.5625 116.5625 C3.59107142 125.73339118 -9.05631451 128.8636598 -20.65234375 129.67578125 C-33.09479997 129.93700409 -44.50067239 128.03115972 -55.25 121.4375 C-54.63811014 114.19399342 -53.6087514 107.0885672 -52.3125 99.9375 C-52.14298828 98.95007813 -51.97347656 97.96265625 -51.79882812 96.9453125 C-51.62931641 96.00429688 -51.45980469 95.06328125 -51.28515625 94.09375 C-51.1344165 93.24619141 -50.98367676 92.39863281 -50.82836914 91.52539062 C-50.25 89.4375 -50.25 89.4375 -48.25 87.4375 C-47.52554688 87.91960937 -46.80109375 88.40171875 -46.0546875 88.8984375 C-44.60449219 89.84589844 -44.60449219 89.84589844 -43.125 90.8125 C-42.17367187 91.43898438 -41.22234375 92.06546875 -40.2421875 92.7109375 C-33.8330141 96.40918116 -27.5593426 97.50390865 -20.25 96.4375 C-16.91178189 94.60098401 -16.91178189 94.60098401 -15.25 91.4375 C-14.47633729 86.11856889 -15.66644028 83.03308703 -18.25 78.4375 C-20.20845534 75.94542898 -20.20845534 75.94542898 -22.4375 73.625 C-23.2315625 72.76003906 -24.025625 71.89507813 -24.84375 71.00390625 C-26.35180618 69.3954762 -27.87101849 67.79735595 -29.40625 66.21484375 C-38.00558038 57.10286098 -42.10206846 48.55400389 -41.82250977 36.02197266 C-41.26242706 25.55896235 -37.81263917 16.85553803 -30.25 9.4375 C-21.21601091 2.49878905 -11.25997341 -0.12938871 0 0 Z " fill="#C91C1C" transform="translate(844.25,637.5625)"/>
<path d="M0 0 C11.88 0 23.76 0 36 0 C33.70235905 18.38112757 33.70235905 18.38112757 32.67138672 24.79296875 C32.55405182 25.53657654 32.43671692 26.28018433 32.31582642 27.04632568 C31.93955543 29.42711166 31.55968542 31.80730634 31.1796875 34.1875 C30.91327599 35.868535 30.64709599 37.54960671 30.38113403 39.23071289 C29.68969092 43.59729016 28.99516232 47.96337088 28.29992676 52.3293457 C27.58736131 56.80780216 26.8778023 61.28673488 26.16796875 65.765625 C24.78154062 74.51087847 23.3915647 83.25556241 22 92 C29.92 92.33 37.84 92.66 46 93 C45.38198608 103.62983945 43.7757095 113.34574302 42 124 C21.87 124 1.74 124 -19 124 C-16.70235905 104.47005195 -16.70235905 104.47005195 -15.21240234 95.24780273 C-15.04629959 94.20168823 -14.88019684 93.15557373 -14.70906067 92.07775879 C-14.17126732 88.69584354 -13.62866715 85.31471999 -13.0859375 81.93359375 C-12.70735084 79.55897232 -12.32907046 77.18430203 -11.95108032 74.80958557 C-10.96446791 68.61642415 -9.97374822 62.42392686 -8.9821167 56.23156738 C-7.96732484 49.88980687 -6.95649478 43.547415 -5.9453125 37.20507812 C-3.96737747 24.80277013 -1.98472811 12.40122272 0 0 Z " fill="#C91C1C" transform="translate(675,640)"/>
<path d="M0 0 C24.67768342 -1.01327103 49.35217541 -1.76685816 74.04660511 -2.22792339 C85.51928846 -2.44791216 96.97879776 -2.74757902 108.44311523 -3.24389648 C192.33937678 -6.80736963 192.33937678 -6.80736963 214.14647579 12.58341885 C223.51296369 21.34505498 231.80098145 31.77884492 238 43 C238 43.33 238 43.66 238 44 C228.54864275 43.44944012 219.36176752 41.94194942 210.07275391 40.19946289 C208.50354162 39.90962106 206.93423322 39.62029915 205.36483765 39.33145142 C201.12140105 38.54893493 196.87933826 37.7591935 192.6374898 36.96811986 C188.13121731 36.12905371 183.62368961 35.29678351 179.11630249 34.46372986 C170.53157366 32.87605496 161.94796826 31.2823901 153.36475599 29.68653911 C142.87043996 27.73567075 132.37467507 25.79264347 121.87890625 23.84960938 C110.80427868 21.7992105 99.72991107 19.74744453 88.65679932 17.68887329 C85.10356434 17.02837888 81.55032254 16.36792118 77.99707031 15.70751953 C76.70565274 15.46748636 76.70565274 15.46748636 75.38814592 15.22260404 C64.49777223 13.19902494 53.60475102 11.19082088 42.70747781 9.20473254 C38.25091883 8.391969 33.79503006 7.57553296 29.33897018 6.76003838 C25.94051457 6.14016835 22.54093701 5.52675134 19.14126587 4.91358948 C17.14668776 4.54876528 15.15216654 4.18362986 13.15771484 3.81811523 C12.27255062 3.66076086 11.3873864 3.50340649 10.47539902 3.3412838 C9.67055195 3.19240023 8.86570488 3.04351665 8.03646851 2.89012146 C7.3473255 2.76536155 6.65818249 2.64060163 5.94815636 2.51206112 C3.78100241 1.94243781 1.96692611 1.06281335 0 0 Z " fill="#B01D22" transform="translate(0,294)"/>
<path d="M0 0 C11.55 0 23.1 0 35 0 C34.38382864 8.62639909 33.72095966 16.88543403 32.34179688 25.36401367 C32.09527122 26.92529999 32.09527122 26.92529999 31.84376526 28.51812744 C31.30787548 31.90235649 30.76351367 35.28515783 30.21875 38.66796875 C29.84098128 41.03966744 29.46366959 43.41143896 29.08679199 45.78327942 C28.30030628 50.7250114 27.5098857 55.66609138 26.71630859 60.60668945 C25.69825531 66.94545003 24.68777331 73.28538814 23.67989349 79.62577343 C22.90308505 84.50986991 22.12354205 89.39352653 21.34303284 94.27703285 C20.96927897 96.61618339 20.59609747 98.95542545 20.22349548 101.29475975 C19.70433751 104.55003949 19.18179289 107.80475672 18.65820312 111.05932617 C18.50440689 112.02707474 18.35061066 112.9948233 18.19215393 113.99189758 C18.04918381 114.87610382 17.90621368 115.76031006 17.75891113 116.67131042 C17.6357679 117.43941638 17.51262466 118.20752234 17.38574982 118.99890423 C17 121 17 121 16 124 C4.45 124 -7.1 124 -19 124 C-18.34582391 116.14988691 -17.58235705 108.53436561 -16.34179688 100.78710938 C-16.17744644 99.73839661 -16.01309601 98.68968384 -15.84376526 97.60919189 C-15.30629583 94.18670091 -14.76265565 90.76522352 -14.21875 87.34375 C-13.84110308 84.94914832 -13.46378912 82.55449411 -13.08679199 80.15979004 C-12.29929692 75.16339278 -11.50894264 70.16745954 -10.71630859 65.171875 C-9.69991905 58.76562756 -8.68895842 52.35853853 -7.67989349 45.95113373 C-6.9024673 41.01648192 -6.12309398 36.08213935 -5.34303284 31.14790344 C-4.96945353 28.7844311 -4.59627237 26.42089579 -4.22349548 24.05729675 C-3.70357925 20.76381331 -3.18125976 17.47072033 -2.65820312 14.17773438 C-2.50440689 13.20108826 -2.35061066 12.22444214 -2.19215393 11.21820068 C-2.04918381 10.32131531 -1.90621368 9.42442993 -1.75891113 8.50036621 C-1.6357679 7.72321007 -1.51262466 6.94605392 -1.38574982 6.1453476 C-1.0141343 4.0786079 -0.50929658 2.03718631 0 0 Z " fill="#C91C1C" transform="translate(553,640)"/>
<path d="M0 0 C-3.29964644 2.19976429 -6.3841892 3.0440078 -10.16503906 4.00512695 C-10.89844356 4.19642685 -11.63184805 4.38772675 -12.38747692 4.58482361 C-14.84551656 5.22461031 -17.30556028 5.85633002 -19.765625 6.48828125 C-21.52016899 6.94363251 -23.27456538 7.39955283 -25.02882385 7.85600281 C-29.77935149 9.09076574 -34.53154419 10.31900219 -39.28406143 11.54608154 C-47.26238458 13.60773386 -55.2376462 15.6812221 -63.21300697 17.75429916 C-65.26436148 18.28748701 -67.31577264 18.82045694 -69.367239 19.35321426 C-84.36731477 23.2497232 -99.34853585 27.21210665 -114.31640625 31.23046875 C-116.16478805 31.72600048 -118.01318671 32.22146933 -119.86160278 32.71687317 C-127.77337516 34.83824171 -135.6838999 36.96390674 -143.58998966 39.10636616 C-146.811684 39.97762674 -150.0351447 40.84220265 -153.25910759 41.70502663 C-154.75066589 42.1058727 -156.24141872 42.50972962 -157.73129463 42.91678429 C-159.75355489 43.46907604 -161.7782862 44.01114979 -163.80395508 44.55078125 C-164.93529373 44.85669189 -166.06663239 45.16260254 -167.23225403 45.4777832 C-170 46 -170 46 -173 45 C-172.34366577 44.14003418 -172.34366577 44.14003418 -171.67407227 43.26269531 C-169.63637422 40.59218344 -167.5993332 37.92117157 -165.5625 35.25 C-164.83272949 34.29311279 -164.10295898 33.33622559 -163.35107422 32.3503418 C-158.73126296 26.28754485 -154.13988134 20.20613331 -149.6015625 14.08203125 C-146.51868904 10.07429575 -146.51868904 10.07429575 -142.51611328 9.50097656 C-140.95161552 9.37122514 -139.38621979 9.2520838 -137.8203125 9.140625 C-136.50178284 9.03602966 -136.50178284 9.03602966 -135.15661621 8.92932129 C-132.14672459 8.69348649 -129.13597356 8.47156584 -126.125 8.25 C-123.9718041 8.08546197 -121.81864774 7.92040592 -119.66552734 7.75488281 C-113.29918719 7.26969648 -106.93173393 6.80041372 -100.56396484 6.33447266 C-96.47468005 6.03518029 -92.38560377 5.73311124 -88.29655266 5.43064499 C-77.02134622 4.59678051 -65.74539016 3.77355102 -54.46895599 2.95646667 C-51.63257933 2.75055025 -48.79629327 2.54342176 -45.96002197 2.33605957 C-41.425274 2.00494697 -36.8902073 1.67856364 -32.35487366 1.35557556 C-30.67061419 1.23499014 -28.98645623 1.11297666 -27.30241394 0.98939514 C-18.19279109 0.3221406 -9.14134879 -0.18834334 0 0 Z " fill="#B21D23" transform="translate(908,83)"/>
<path d="M0 0 C-0.57741943 0.36649658 -1.15483887 0.73299316 -1.74975586 1.1105957 C-16.25086279 10.3175258 -16.25086279 10.3175258 -30.6875 19.625 C-39.73689992 25.50326148 -48.86480028 31.25627532 -58 37 C-62.44491605 33.78210831 -65.52377167 30.07057233 -68.8125 25.75 C-69.31458984 25.1003125 -69.81667969 24.450625 -70.33398438 23.78125 C-71.56129913 22.19158517 -72.78139493 20.5963513 -74 19 C-70.75850749 16.83900499 -68.21989948 16.10733101 -64.46484375 15.10473633 C-63.80598175 14.92727371 -63.14711975 14.7498111 -62.46829224 14.56697083 C-60.29287323 13.98282731 -58.11534362 13.40706397 -55.9375 12.83203125 C-54.424331 12.42918041 -52.91122969 12.02607527 -51.39819336 11.62272644 C-48.22838143 10.77922733 -45.05745134 9.94009536 -41.88574219 9.10375977 C-37.81763075 8.03048769 -33.75303945 6.94449354 -29.68925476 5.85496998 C-26.56645404 5.01958445 -23.44164272 4.19193413 -20.31619263 3.36652184 C-18.81636163 2.96922498 -17.31722927 2.56928111 -15.81881714 2.16666603 C-13.72628591 1.60544717 -11.63122229 1.05492535 -9.53515625 0.50708008 C-8.342854 0.19112381 -7.15055176 -0.12483246 -5.92211914 -0.45036316 C-3 -1 -3 -1 0 0 Z " fill="#FEFDFD" transform="translate(558,176)"/>
</svg>
